<mxfile host="app.diagrams.net" modified="2021-05-05T10:56:06.268Z" agent="5.0 (Windows NT 10.0; WOW64) AppleWebKit/537.36 (KHTML, like Gecko) Chrome/89.0.4389.105 YaBrowser/21.3.3.234 Yowser/2.5 Safari/537.36" etag="oEMoHNL6-Dp-jNhAhpyG" version="14.6.10" type="github">
  <diagram id="00MdXnSWmAbsjQfJCBeG" name="Page-1">
    <mxGraphModel dx="1102" dy="585" grid="1" gridSize="10" guides="1" tooltips="1" connect="1" arrows="1" fold="1" page="1" pageScale="1" pageWidth="827" pageHeight="1169" math="0" shadow="0">
      <root>
        <mxCell id="0" />
        <mxCell id="1" parent="0" />
        <mxCell id="6gAh_pzCnlOw75f1ds9j-4" style="edgeStyle=orthogonalEdgeStyle;rounded=0;orthogonalLoop=1;jettySize=auto;html=1;" edge="1" parent="1" source="6gAh_pzCnlOw75f1ds9j-1" target="6gAh_pzCnlOw75f1ds9j-5">
          <mxGeometry relative="1" as="geometry">
            <mxPoint x="260" y="310" as="targetPoint" />
          </mxGeometry>
        </mxCell>
        <mxCell id="6gAh_pzCnlOw75f1ds9j-6" style="edgeStyle=orthogonalEdgeStyle;rounded=0;orthogonalLoop=1;jettySize=auto;html=1;" edge="1" parent="1" source="6gAh_pzCnlOw75f1ds9j-1" target="6gAh_pzCnlOw75f1ds9j-7">
          <mxGeometry relative="1" as="geometry">
            <mxPoint x="550" y="310" as="targetPoint" />
          </mxGeometry>
        </mxCell>
        <mxCell id="6gAh_pzCnlOw75f1ds9j-11" style="edgeStyle=orthogonalEdgeStyle;rounded=0;orthogonalLoop=1;jettySize=auto;html=1;entryX=0.5;entryY=0;entryDx=0;entryDy=0;" edge="1" parent="1" source="6gAh_pzCnlOw75f1ds9j-1" target="6gAh_pzCnlOw75f1ds9j-10">
          <mxGeometry relative="1" as="geometry" />
        </mxCell>
        <mxCell id="6gAh_pzCnlOw75f1ds9j-16" style="edgeStyle=orthogonalEdgeStyle;rounded=0;orthogonalLoop=1;jettySize=auto;html=1;entryX=1;entryY=0.5;entryDx=0;entryDy=0;" edge="1" parent="1" source="6gAh_pzCnlOw75f1ds9j-1" target="6gAh_pzCnlOw75f1ds9j-8">
          <mxGeometry relative="1" as="geometry" />
        </mxCell>
        <mxCell id="6gAh_pzCnlOw75f1ds9j-18" style="edgeStyle=orthogonalEdgeStyle;rounded=0;orthogonalLoop=1;jettySize=auto;html=1;" edge="1" parent="1" source="6gAh_pzCnlOw75f1ds9j-1" target="6gAh_pzCnlOw75f1ds9j-3">
          <mxGeometry relative="1" as="geometry" />
        </mxCell>
        <mxCell id="6gAh_pzCnlOw75f1ds9j-19" style="edgeStyle=orthogonalEdgeStyle;rounded=0;orthogonalLoop=1;jettySize=auto;html=1;entryX=0.5;entryY=1;entryDx=0;entryDy=0;" edge="1" parent="1" source="6gAh_pzCnlOw75f1ds9j-1" target="6gAh_pzCnlOw75f1ds9j-12">
          <mxGeometry relative="1" as="geometry" />
        </mxCell>
        <mxCell id="6gAh_pzCnlOw75f1ds9j-1" value="WitherBot" style="rounded=0;whiteSpace=wrap;html=1;" vertex="1" parent="1">
          <mxGeometry x="370" y="280" width="120" height="60" as="geometry" />
        </mxCell>
        <mxCell id="6gAh_pzCnlOw75f1ds9j-3" value="Chat" style="rounded=1;whiteSpace=wrap;html=1;" vertex="1" parent="1">
          <mxGeometry x="250" y="50" width="120" height="60" as="geometry" />
        </mxCell>
        <mxCell id="6gAh_pzCnlOw75f1ds9j-5" value="Calculator" style="rounded=1;whiteSpace=wrap;html=1;" vertex="1" parent="1">
          <mxGeometry x="110" y="280" width="120" height="60" as="geometry" />
        </mxCell>
        <mxCell id="6gAh_pzCnlOw75f1ds9j-7" value="Weather" style="rounded=1;whiteSpace=wrap;html=1;" vertex="1" parent="1">
          <mxGeometry x="600" y="280" width="120" height="60" as="geometry" />
        </mxCell>
        <mxCell id="6gAh_pzCnlOw75f1ds9j-8" value="Music" style="rounded=1;whiteSpace=wrap;html=1;" vertex="1" parent="1">
          <mxGeometry x="110" y="370" width="120" height="60" as="geometry" />
        </mxCell>
        <mxCell id="6gAh_pzCnlOw75f1ds9j-12" value="Support" style="rounded=1;whiteSpace=wrap;html=1;" vertex="1" parent="1">
          <mxGeometry x="490" y="50" width="120" height="60" as="geometry" />
        </mxCell>
        <mxCell id="6gAh_pzCnlOw75f1ds9j-10" value="Games" style="rounded=1;whiteSpace=wrap;html=1;" vertex="1" parent="1">
          <mxGeometry x="110" y="200" width="120" height="60" as="geometry" />
        </mxCell>
        <mxCell id="6gAh_pzCnlOw75f1ds9j-20" value="Articles" style="rounded=1;whiteSpace=wrap;html=1;" vertex="1" parent="1">
          <mxGeometry x="370" y="50" width="120" height="60" as="geometry" />
        </mxCell>
      </root>
    </mxGraphModel>
  </diagram>
</mxfile>
